<?xml version="1.0" encoding="UTF-8" standalone="no"?>
<svg
   xmlns:dc="http://purl.org/dc/elements/1.1/"
   xmlns:cc="http://creativecommons.org/ns#"
   xmlns:rdf="http://www.w3.org/1999/02/22-rdf-syntax-ns#"
   xmlns:svg="http://www.w3.org/2000/svg"
   xmlns="http://www.w3.org/2000/svg"
   xmlns:sodipodi="http://sodipodi.sourceforge.net/DTD/sodipodi-0.dtd"
   xmlns:inkscape="http://www.inkscape.org/namespaces/inkscape"
   width="22.681614mm"
   height="22.681614mm"
   viewBox="0 0 22.681614 22.681614"
   version="1.1"
   id="svg8"
   inkscape:version="1.0beta2 (2b71d25, 2019-12-03)"
   sodipodi:docname="player2hurt.svg"
   inkscape:export-filename="/Users/dmr2/Documents/GameProject/tutorial/android/assets/raw_assests/player2.png"
   inkscape:export-xdpi="500"
   inkscape:export-ydpi="500">
  <defs
     id="defs2" />
  <sodipodi:namedview
     id="base"
     pagecolor="#ffffff"
     bordercolor="#666666"
     borderopacity="1.0"
     inkscape:pageopacity="0.0"
     inkscape:pageshadow="2"
     inkscape:zoom="3.7920086"
     inkscape:cx="40.202714"
     inkscape:cy="59.022564"
     inkscape:document-units="mm"
     inkscape:current-layer="layer1"
     inkscape:document-rotation="0"
     showgrid="false"
     inkscape:window-width="1440"
     inkscape:window-height="779"
     inkscape:window-x="0"
     inkscape:window-y="23"
     inkscape:window-maximized="0" />
  <metadata
     id="metadata5">
    <rdf:RDF>
      <cc:Work
         rdf:about="">
        <dc:format>image/svg+xml</dc:format>
        <dc:type
           rdf:resource="http://purl.org/dc/dcmitype/StillImage" />
        <dc:title></dc:title>
      </cc:Work>
    </rdf:RDF>
  </metadata>
  <g
     inkscape:label="Layer 1"
     inkscape:groupmode="layer"
     id="layer1"
     transform="translate(-87.558176,-76.218905)">
    <rect
       style="fill:#0000ff;fill-rule:evenodd;stroke:#ff0000;stroke-width:0.264583;stroke-miterlimit:3.25;stroke-opacity:0.305882;paint-order:stroke fill markers"
       id="rect833"
       width="22.41703"
       height="22.41703"
       x="87.690468"
       y="76.351196"
       ry="0" />
    <ellipse
       cy="83.519043"
       cx="104.73157"
       id="ellipse843"
       style="fill:#ff8080;fill-rule:evenodd;stroke:#fde3ca;stroke-width:0.264584;stroke-miterlimit:3.25;stroke-opacity:0.305882;paint-order:stroke fill markers"
       rx="1.8901762"
       ry="3.0249414" />
    <ellipse
       style="fill:#000000;fill-rule:evenodd;stroke:#fde3ca;stroke-width:0.264583;stroke-miterlimit:3.25;stroke-opacity:0.305882;paint-order:stroke fill markers"
       id="ellipse845"
       cx="104.77419"
       cy="83.413589"
       rx="0.98042268"
       ry="1.018989" />
    <ellipse
       inkscape:export-ydpi="500"
       inkscape:export-xdpi="500"
       inkscape:export-filename="/Users/dmr2/Documents/GameProject/tutorial/android/assets/raw_assests/player2hurt.png"
       ry="3.2562828"
       rx="3.6756525"
       cy="93.092369"
       cx="98.881157"
       id="path865"
       style="fill:#ffffff;fill-rule:evenodd;stroke:#000080;stroke-width:0.499999;stroke-linecap:square;paint-order:stroke fill markers" />
    <g
       id="g871">
      <ellipse
         cy="83.519043"
         cx="92.298485"
         id="path835"
         style="fill:#ff8080;fill-rule:evenodd;stroke:#fde3ca;stroke-width:0.264584;stroke-miterlimit:3.25;stroke-opacity:0.305882;paint-order:stroke fill markers"
         rx="1.8901762"
         ry="3.0249414" />
      <ellipse
         style="fill:#000000;fill-rule:evenodd;stroke:#fde3ca;stroke-width:0.264583;stroke-miterlimit:3.25;stroke-opacity:0.305882;paint-order:stroke fill markers"
         id="ellipse841"
         cx="92.341103"
         cy="83.413589"
         rx="0.98042268"
         ry="1.018989" />
    </g>
    <path
       style="fill:none;stroke:#000000;stroke-width:0.7;stroke-linecap:butt;stroke-linejoin:miter;stroke-miterlimit:4;stroke-dasharray:none;stroke-opacity:1"
       d="m 101.99339,78.52303 c 0.0532,0.299871 0.15469,0.501728 0.39568,0.629535 0.0393,0.02085 0.0888,0.0092 0.13193,0 0.59894,-0.127044 0.19766,-0.13969 0.5276,-0.489638 0.0155,-0.01649 0.0504,0.01649 0.0659,0 0.0311,-0.03298 -0.0312,-0.106927 0,-0.139904 0.0311,-0.03298 0.10078,0.03298 0.13193,0 0.0204,-0.0217 0.099,-0.192275 0.19784,-0.139903 0.18988,0.100688 0.38894,0.135111 0.59354,0.279792 0.14179,0.100249 0.23974,0.324218 0.32975,0.41969 0.0311,0.03298 0.10079,-0.03298 0.13193,0 0.0648,0.06882 0.0374,0.182434 0.19785,0.139903 0.14476,-0.03838 0.33376,-0.144142 0.3957,-0.209845 0.0155,-0.01649 -0.0183,-0.05702 0,-0.06995 0.0579,-0.0409 0.13567,-0.03697 0.19784,-0.06995 0.12993,-0.06892 0.20402,-0.510774 0.46166,-0.41969 0.54419,0.192401 0.46516,0.83938 0.92327,0.83938"
       id="path875"
       inkscape:connector-curvature="0" />
    <path
       inkscape:connector-curvature="0"
       id="path877"
       d="m 89.688224,79.731204 c -0.01643,-0.30411 0.03646,-0.523766 0.242044,-0.703059 0.03352,-0.02925 0.08438,-0.02917 0.128469,-0.03002 0.612136,-0.01258 0.224262,0.09105 0.625179,0.356733 0.01885,0.01253 0.04533,-0.02753 0.06417,-0.015 0.03779,0.02504 -0.006,0.111221 0.03184,0.136233 0.03779,0.02504 0.09063,-0.05505 0.128469,-0.03002 0.0248,0.01649 0.140156,0.164702 0.224486,0.09121 0.161986,-0.141255 0.34799,-0.220072 0.514299,-0.407516 0.115258,-0.129884 0.159672,-0.370267 0.225595,-0.483716 0.02278,-0.03919 0.105651,0.0092 0.128469,-0.03002 0.04744,-0.08176 -0.0051,-0.186158 0.160823,-0.181255 0.149696,0.0044 0.357805,0.06441 0.433071,0.114295 0.01885,0.01253 -0.0048,0.05969 0.01592,0.06812 0.06569,0.02665 0.140524,0.0051 0.208568,0.02309 0.142204,0.03754 0.314898,0.450947 0.545052,0.303625 0.48613,-0.311188 0.261948,-0.923209 0.70804,-1.027456"
       style="fill:none;stroke:#000000;stroke-width:0.7;stroke-linecap:butt;stroke-linejoin:miter;stroke-miterlimit:4;stroke-dasharray:none;stroke-opacity:1" />
  </g>
</svg>
